<svg xmlns="http://www.w3.org/2000/svg" width="154.014" height="1577" viewBox="0 0 154.014 1577">
  <g id="images-s4c6f6ec55b" transform="translate(0.006 0)">
    <path id="路径_1" data-name="路径 1" d="M16,1545v-6h6v6Zm0-14h6v6H16Zm0-8h6v6H16Zm-8,16h6v6H8Zm0-8h6v6H8Zm0-8h6v6H8Zm-8,16H6v6H0Zm0-8H6v6H0Zm0-8H6v6H0Z" fill="#fff" fill-rule="evenodd"/>
    <path id="Rectangle_8_copy" data-name="Rectangle 8 copy" d="M16,1577v-6h6v6Zm0-14h6v6H16Zm0-8h6v6H16Zm-8,16h6v6H8Zm0-8h6v6H8Zm0-8h6v6H8Zm-8,16H6v6H0Zm0-8H6v6H0Zm0-8H6v6H0Z" fill="#787c82" fill-rule="evenodd"/>
    <path id="znak_copy_3" data-name="znak copy 3" d="M110.983,55.383a3.887,3.887,0,0,1-1.96,3.456L79.041,75.962a3.977,3.977,0,0,1-4.076,0L44.983,58.839A4.848,4.848,0,0,1,43,54.979V21.544a3.9,3.9,0,0,1,.021-.4,3.888,3.888,0,0,1,1.96-3.456L74.965.562a3.978,3.978,0,0,1,4.076,0l29.982,17.123a3.887,3.887,0,0,1,1.96,3.456,3.851,3.851,0,0,1,.021.4V54.979a3.848,3.848,0,0,1-.021.4Zm-3.4-32a3.542,3.542,0,0,0-.019-.359,3.445,3.445,0,0,0-1.764-3.069L78.81,4.75a3.621,3.621,0,0,0-3.668,0L48.156,19.959a3.444,3.444,0,0,0-1.764,3.069,3.43,3.43,0,0,0-.019.359v29.7a4.276,4.276,0,0,0,1.783,3.428L75.141,71.72a3.621,3.621,0,0,0,3.668,0L105.8,56.511a3.445,3.445,0,0,0,1.764-3.069,3.544,3.544,0,0,0,.019-.359v-29.7Zm-16.847,29.6H71.3A1.131,1.131,0,0,1,70.4,51l9.513-9.535a1.481,1.481,0,0,1,2.168,0l9.483,9.505a1.136,1.136,0,0,1-.833,2.017Zm-.04,0h.04c.547,0,.591,0-.04.007Zm.847-26.82.017-.02c.2-.2.212-.2-.018.027ZM65.15,52.53c-.82.819-2.165.6-2.165-.811V25.629a1.571,1.571,0,0,1,1.624-1.622H90.681a1.2,1.2,0,0,1,.874,2.143C89.695,28,71.323,46.364,65.15,52.53Z" fill="#fff" fill-rule="evenodd"/>
    <path id="KREATIVA_STUDIO" data-name="KREATIVA STUDIO" d="M6.39,103.419l3.8-7.148H6.918l-2.8,5.714-1.067,2.473V96.271H0v16.51H3.054v-5.827l1.224-1.231,2.7,7.058h3.258Zm9.436,2.936,2.595,6.426H21.69l-3.156-7.239q2.1-1.242,2.1-4.37a5.029,5.029,0,0,0-1.207-3.693,5.106,5.106,0,0,0-3.746-1.208h-4v16.51h3.055v-6.426h1.09Zm-1.09-7.43H15.5a2.017,2.017,0,0,1,1.545.536,2.611,2.611,0,0,1,.5,1.8,2.988,2.988,0,0,1-.472,1.835,1.829,1.829,0,0,1-1.55.616h-.787V98.925Zm15.849,11.168H26.238v-4.574h4.033v-2.665H26.238V98.925h4.347V96.271h-7.4v16.51h7.4v-2.688Zm13.232,2.688L39.74,96.2H35.6l-4.066,16.578h3.055l.944-4.167h4.28l.944,4.167h3.067Zm-7.683-6.889q.943-4.167,1.168-5.336t.371-2.14q.056.474.331,1.881t.354,1.756l.876,3.839h-3.1Zm13.39-6.922h3.145v-2.7H43.334v2.7H46.48v13.811h3.044Zm8.323,13.811V96.271H54.972v16.51h2.876Zm8.413-6.426q-.36,1.648-.6,3.693-.281-2.406-.573-3.693l-2.14-10.084H59.869l3.842,16.51H67.6l3.864-16.51H68.383Zm17.186,6.426L79.369,96.2H75.224l-4.066,16.578h3.055l.944-4.167h4.28l.944,4.167h3.067Zm-7.683-6.889q.944-4.167,1.168-5.336t.371-2.14q.056.474.331,1.881t.354,1.756l.876,3.839h-3.1Zm21.662-.237a6.946,6.946,0,0,0-2.241-2.213,7.084,7.084,0,0,1-1.668-1.412,2.32,2.32,0,0,1-.477-1.457,2.063,2.063,0,0,1,.4-1.338,1.384,1.384,0,0,1,1.14-.491,3.224,3.224,0,0,1,1.264.248,9.634,9.634,0,0,1,1.129.565l1.01-2.457a6.873,6.873,0,0,0-3.628-1.061A4.129,4.129,0,0,0,91.2,97.276a4.7,4.7,0,0,0-1.174,3.365,5.777,5.777,0,0,0,.3,1.942,5.068,5.068,0,0,0,.842,1.508,7.755,7.755,0,0,0,1.6,1.406,7.842,7.842,0,0,1,1.741,1.519,2.408,2.408,0,0,1,.528,1.507,1.885,1.885,0,0,1-.444,1.322,1.7,1.7,0,0,1-1.32.485,6.292,6.292,0,0,1-3.381-1.208v3.038a7.346,7.346,0,0,0,3.651.847,4.394,4.394,0,0,0,3.353-1.231,4.973,4.973,0,0,0,1.163-3.546,5.166,5.166,0,0,0-.633-2.575Zm7.7-6.685h3.145v-2.7H98.937v2.7h3.145v13.811h3.044V98.97Zm11.963-2.7V107.2a4.138,4.138,0,0,1-.528,2.281,1.687,1.687,0,0,1-1.494.8q-2.079,0-2.078-3.151V96.271h-3.033v10.637a6.991,6.991,0,0,0,1.28,4.557,4.572,4.572,0,0,0,3.73,1.542,4.76,4.76,0,0,0,3.83-1.553,6.747,6.747,0,0,0,1.325-4.5V96.271h-3.032ZM131.8,98.4a5.255,5.255,0,0,0-4.46-2.129h-4.392v16.51h4.021a5.647,5.647,0,0,0,4.769-2.163,10.126,10.126,0,0,0,1.657-6.25A9.783,9.783,0,0,0,131.8,98.4Zm-2.337,10.287A2.649,2.649,0,0,1,127,110.093h-.989V98.925h1.225q3.033,0,3.033,5.533a8.8,8.8,0,0,1-.8,4.229Zm9.75,4.094V96.271h-2.875v16.51Zm13.255-14.574a4.975,4.975,0,0,0-4.359-2.2,5.043,5.043,0,0,0-4.4,2.185,10.908,10.908,0,0,0-1.527,6.285,11.032,11.032,0,0,0,1.527,6.329,5.452,5.452,0,0,0,8.751,0,11,11,0,0,0,1.527-6.3,11.021,11.021,0,0,0-1.515-6.3Zm-6.459,1.987a2.252,2.252,0,0,1,2.1-1.474q2.742,0,2.741,5.782t-2.763,5.782a2.239,2.239,0,0,1-2.078-1.479,13.445,13.445,0,0,1,0-8.605Z" fill="#fff" fill-rule="evenodd"/>
    <path id="znak_copy_4" data-name="znak copy 4" d="M110.983,178.383a3.888,3.888,0,0,1-1.96,3.456L79.041,198.962a3.976,3.976,0,0,1-4.076,0L44.983,181.839A4.849,4.849,0,0,1,43,177.979V144.544a4.847,4.847,0,0,1,1.982-3.859l29.982-17.123a3.976,3.976,0,0,1,4.076,0l29.982,17.123A4.845,4.845,0,0,1,111,144.544v33.435a3.846,3.846,0,0,1-.017.4Zm-3.4-32a3.551,3.551,0,0,0-.019-.359,3.445,3.445,0,0,0-1.764-3.069L78.81,127.75a3.621,3.621,0,0,0-3.668,0L48.156,142.959a4.275,4.275,0,0,0-1.783,3.428v29.7a4.275,4.275,0,0,0,1.783,3.428L75.141,194.72a3.621,3.621,0,0,0,3.668,0L105.8,179.511a3.445,3.445,0,0,0,1.764-3.069,3.537,3.537,0,0,0,.019-.359v-29.7Zm-16.847,29.6H71.3A1.131,1.131,0,0,1,70.4,174l9.513-9.536a1.481,1.481,0,0,1,2.168,0l9.483,9.506a1.136,1.136,0,0,1-.833,2.017Zm-.04,0h.04c.547,0,.591.005-.04.007Zm.847-26.821.017-.019c.2-.2.212-.2-.018.026ZM65.15,175.53c-.82.819-2.165.6-2.165-.811v-26.09a1.571,1.571,0,0,1,1.624-1.622H90.681a1.2,1.2,0,0,1,.874,2.143C89.695,151,71.323,169.364,65.15,175.53Z" fill="#fff" fill-rule="evenodd"/>
    <path id="KREATIVA_STUDIO_copy_3" data-name="KREATIVA STUDIO copy 3" d="M6.39,226.419l3.8-7.148H6.918l-2.8,5.714-1.067,2.473v-8.187H0v16.51H3.054v-5.827l1.224-1.231,2.7,7.058h3.258Zm9.436,2.936,2.595,6.426H21.69l-3.156-7.239q2.1-1.242,2.1-4.37a5.03,5.03,0,0,0-1.207-3.693,5.108,5.108,0,0,0-3.746-1.208h-4v16.51h3.055v-6.426h1.09Zm-1.09-7.43H15.5a2.015,2.015,0,0,1,1.545.536,2.612,2.612,0,0,1,.5,1.8,2.988,2.988,0,0,1-.472,1.835,1.829,1.829,0,0,1-1.55.616h-.787v-4.788Zm15.849,11.168H26.238V228.52h4.033v-2.666H26.238v-3.929h4.347v-2.654h-7.4v16.51h7.4v-2.688Zm13.232,2.688L39.74,219.2H35.6l-4.066,16.578h3.055l.944-4.167h4.28l.944,4.167h3.067Zm-7.683-6.889q.943-4.167,1.168-5.336t.371-2.14q.056.476.331,1.881t.354,1.756l.876,3.839Zm13.389-6.922h3.145v-2.7H43.334v2.7H46.48v13.811h3.044V221.97Zm8.323,13.811v-16.51H54.972v16.51h2.876Zm8.413-6.426q-.36,1.649-.6,3.693-.281-2.406-.573-3.693l-2.145-10.084H59.869l3.842,16.51H67.6l3.864-16.51H68.383Zm17.186,6.426L79.369,219.2H75.224l-4.066,16.578h3.055l.944-4.167h4.28l.944,4.167h3.067Zm-7.683-6.889q.944-4.167,1.168-5.336t.371-2.14q.056.476.331,1.881t.354,1.756l.876,3.839Zm21.662-.237a6.946,6.946,0,0,0-2.241-2.213,7.084,7.084,0,0,1-1.668-1.412,2.32,2.32,0,0,1-.477-1.457,2.064,2.064,0,0,1,.4-1.338,1.385,1.385,0,0,1,1.14-.491,3.233,3.233,0,0,1,1.264.248,9.618,9.618,0,0,1,1.129.565l1.011-2.462a6.877,6.877,0,0,0-3.628-1.061,4.13,4.13,0,0,0-3.151,1.242,4.7,4.7,0,0,0-1.174,3.365,5.777,5.777,0,0,0,.3,1.942,5.068,5.068,0,0,0,.842,1.508,7.754,7.754,0,0,0,1.6,1.406,7.842,7.842,0,0,1,1.741,1.519,2.408,2.408,0,0,1,.528,1.507,1.885,1.885,0,0,1-.444,1.322,1.7,1.7,0,0,1-1.32.485,6.292,6.292,0,0,1-3.381-1.208v3.038a7.346,7.346,0,0,0,3.651.847,4.394,4.394,0,0,0,3.353-1.231,4.973,4.973,0,0,0,1.163-3.546,5.166,5.166,0,0,0-.636-2.575Zm7.7-6.685h3.145v-2.7H98.937v2.7h3.145v13.811h3.044V221.97Zm11.963-2.7V230.2a4.136,4.136,0,0,1-.528,2.281,1.687,1.687,0,0,1-1.494.8q-2.079,0-2.078-3.151V219.271h-3.033v10.638a6.988,6.988,0,0,0,1.28,4.556,4.572,4.572,0,0,0,3.73,1.542,4.76,4.76,0,0,0,3.83-1.553,6.747,6.747,0,0,0,1.325-4.5V219.271h-3.032ZM131.8,221.4a5.254,5.254,0,0,0-4.46-2.128h-4.392v16.51h4.021a5.647,5.647,0,0,0,4.769-2.163,10.126,10.126,0,0,0,1.657-6.25,9.786,9.786,0,0,0-1.6-5.969Zm-2.337,10.288a2.649,2.649,0,0,1-2.463,1.4h-.989V221.925h1.225q3.033,0,3.033,5.533a8.8,8.8,0,0,1-.8,4.229Zm9.75,4.094v-16.51h-2.875v16.51Zm13.255-14.574a4.975,4.975,0,0,0-4.359-2.2,5.043,5.043,0,0,0-4.4,2.185,10.909,10.909,0,0,0-1.527,6.285,11.032,11.032,0,0,0,1.527,6.329,5.452,5.452,0,0,0,8.751,0,13.8,13.8,0,0,0,.012-12.6Zm-6.459,1.988a2.253,2.253,0,0,1,2.1-1.474q2.742,0,2.741,5.782t-2.763,5.782a2.239,2.239,0,0,1-2.078-1.479,13.445,13.445,0,0,1,0-8.607Z" fill="#fff" fill-rule="evenodd"/>
    <rect id="Rectangle_1_copy_7" data-name="Rectangle 1 copy 7" width="45" height="45" transform="translate(8 255)" fill="#24b68e"/>
    <path id="Rectangle_1_copy_11" data-name="Rectangle 1 copy 11" d="M8,255H44.015L16,282.992Z" fill="#40e29f" fill-rule="evenodd"/>
    <path id="Rectangle_1_copy_10" data-name="Rectangle 1 copy 10" d="M53,300H8V255Z" fill="#64ffa9" fill-rule="evenodd"/>
    <rect id="Rectangle_1_copy_6" data-name="Rectangle 1 copy 6" width="45" height="45" transform="translate(8 328)" fill="#24b68e"/>
    <path id="Rectangle_1_copy_8" data-name="Rectangle 1 copy 8" d="M8,328H44.015L16,355.992Z" fill="#40e29f" fill-rule="evenodd"/>
    <path id="Rectangle_1_copy_9" data-name="Rectangle 1 copy 9" d="M53,373H8V328Z" fill="#64ffa9" fill-rule="evenodd"/>
    <path id="ball" d="M12,817a12,12,0,1,1,12-12,12,12,0,0,1-12,12Zm10.121-10.357a15.028,15.028,0,0,0-6.385-.438,44.215,44.215,0,0,1,1.991,7.308,10.268,10.268,0,0,0,4.394-6.87ZM16,814.451a42.626,42.626,0,0,0-2.187-7.773l-.068.023c-5.782,2.015-7.857,6.024-8.041,6.4a10.234,10.234,0,0,0,10.3,1.35ZM4.385,811.869a16.267,16.267,0,0,1,8.332-6.764c.134-.043.268-.084.4-.122-.257-.582-.538-1.165-.831-1.739A37.761,37.761,0,0,1,1.755,804.7c0,.105-.005.209-.005.314a10.209,10.209,0,0,0,2.635,6.855Zm-2.419-8.953a38.2,38.2,0,0,0,9.476-1.249,65.478,65.478,0,0,0-3.8-5.928,10.29,10.29,0,0,0-5.676,7.177ZM9.6,795.05a54.8,54.8,0,0,1,3.825,6,11.568,11.568,0,0,0,5.372-3.7,10.237,10.237,0,0,0-9.2-2.3Zm10.336,3.484a13.655,13.655,0,0,1-5.724,4.041c.239.488.467.985.68,1.485q.113.265.221.529a23.932,23.932,0,0,1,7.137.33,10.2,10.2,0,0,0-2.316-6.385Z" fill="#787c82" fill-rule="evenodd"/>
    <path id="ball_copy_2" data-name="ball copy 2" d="M12,783a12,12,0,1,1,12-12A12,12,0,0,1,12,783Zm10.121-10.357a15.037,15.037,0,0,0-6.385-.439,44.242,44.242,0,0,1,1.991,7.309A10.268,10.268,0,0,0,22.121,772.643ZM16,780.451a42.624,42.624,0,0,0-2.187-7.773l-.068.023c-5.782,2.015-7.857,6.024-8.041,6.4a10.234,10.234,0,0,0,10.3,1.35ZM4.385,777.869a16.267,16.267,0,0,1,8.332-6.764c.134-.043.268-.084.4-.122-.257-.582-.538-1.165-.831-1.739A37.759,37.759,0,0,1,1.755,770.7c0,.1-.005.209-.005.314a10.209,10.209,0,0,0,2.635,6.855Zm-2.419-8.953a38.2,38.2,0,0,0,9.476-1.249,65.479,65.479,0,0,0-3.8-5.928,10.288,10.288,0,0,0-5.676,7.177ZM9.6,761.05a54.8,54.8,0,0,1,3.825,6,11.568,11.568,0,0,0,5.372-3.7,10.237,10.237,0,0,0-9.2-2.3Zm10.336,3.484a13.655,13.655,0,0,1-5.724,4.041c.239.488.467.985.68,1.485q.113.265.221.529a23.93,23.93,0,0,1,7.137.33,10.2,10.2,0,0,0-2.316-6.385Z" fill="#787c82" fill-rule="evenodd"/>
    <circle id="椭圆_1" data-name="椭圆 1" cx="11" cy="11" r="11" transform="translate(1 829)" fill="#ea4c89"/>
    <path id="ball_copy" data-name="ball copy" d="M12,852a12,12,0,1,1,12-12,12,12,0,0,1-12,12Zm10.121-10.357a15.026,15.026,0,0,0-6.385-.438,44.221,44.221,0,0,1,1.991,7.308A10.268,10.268,0,0,0,22.121,841.643ZM16,849.451a42.627,42.627,0,0,0-2.187-7.773l-.068.023c-5.782,2.015-7.857,6.024-8.041,6.4a10.234,10.234,0,0,0,10.3,1.35ZM4.385,846.869a16.267,16.267,0,0,1,8.332-6.764c.134-.043.268-.084.4-.122-.257-.582-.538-1.165-.831-1.739A37.761,37.761,0,0,1,1.755,839.7c0,.105-.005.209-.005.314a10.209,10.209,0,0,0,2.635,6.855Zm-2.419-8.953a38.2,38.2,0,0,0,9.476-1.249,65.48,65.48,0,0,0-3.8-5.928,10.29,10.29,0,0,0-5.676,7.177ZM9.6,830.05a54.8,54.8,0,0,1,3.825,6,11.568,11.568,0,0,0,5.372-3.7,10.237,10.237,0,0,0-9.2-2.3Zm10.336,3.484a13.655,13.655,0,0,1-5.724,4.041c.239.488.467.985.68,1.485q.113.265.221.529a23.932,23.932,0,0,1,7.137.33,10.2,10.2,0,0,0-2.316-6.385Z" fill="#c32361" fill-rule="evenodd"/>
    <circle id="Ellipse_1_copy_3" data-name="Ellipse 1 copy 3" cx="11" cy="11" r="11" transform="translate(1 726)" fill="#ea4c89"/>
    <path id="ball_copy_4" data-name="ball copy 4" d="M12,749a12,12,0,1,1,12-12A12,12,0,0,1,12,749Zm10.121-10.357a15.026,15.026,0,0,0-6.385-.438,44.212,44.212,0,0,1,1.991,7.308,10.268,10.268,0,0,0,4.394-6.87ZM16,746.451a42.627,42.627,0,0,0-2.187-7.773l-.068.023c-5.782,2.015-7.857,6.024-8.041,6.4a10.234,10.234,0,0,0,10.3,1.35ZM4.385,743.869a16.267,16.267,0,0,1,8.332-6.764c.134-.043.268-.084.4-.122-.257-.582-.538-1.165-.831-1.739A37.759,37.759,0,0,1,1.755,736.7c0,.1-.005.209-.005.314a10.209,10.209,0,0,0,2.635,6.855Zm-2.419-8.953a38.2,38.2,0,0,0,9.476-1.249,65.472,65.472,0,0,0-3.8-5.928,10.29,10.29,0,0,0-5.676,7.177ZM9.6,727.05a54.8,54.8,0,0,1,3.825,6,11.568,11.568,0,0,0,5.372-3.7,10.237,10.237,0,0,0-9.2-2.3Zm10.336,3.484a13.655,13.655,0,0,1-5.724,4.041c.239.488.467.985.68,1.485q.113.265.221.529a23.932,23.932,0,0,1,7.137.33,10.2,10.2,0,0,0-2.316-6.385Z" fill="#c32361" fill-rule="evenodd"/>
    <path id="Shape_1_copy_3" data-name="Shape 1 copy 3" d="M10.992,887.032H6.966v-10L4,877v-4H7l-.034-2.593c0-3.375.955-5.407,5.034-5.407h3v4.163H12.476c-1.387,0-1.479.4-1.479,1.475L11,873h4l-1,4.028H10.992v10Z" fill="#787c82" fill-rule="evenodd"/>
    <path id="Shape_1_copy_4" data-name="Shape 1 copy 4" d="M6.992,1252.03H2.966v-10L0,1242v-4H3l-.034-2.59c0-3.38.955-5.41,5.034-5.41h3v4.16H8.476c-1.387,0-1.479.4-1.479,1.48L7,1238h4l-1,4.03H6.992Z" fill="#3b5998" fill-rule="evenodd"/>
    <path id="Shape_1_copy_5" data-name="Shape 1 copy 5" d="M10.992,1323.03H6.966v-10L4,1313v-4H7l-.034-2.59c0-3.38.955-5.41,5.034-5.41h3v4.16H12.476c-1.387,0-1.479.4-1.479,1.48V1309h4l-1,4.03H10.992Z" fill="#3b5998" fill-rule="evenodd"/>
    <path id="Shape_1_copy_6" data-name="Shape 1 copy 6" d="M6.992,1356.03H2.966v-10L0,1346v-4H3l-.034-2.59c0-3.38.955-5.41,5.034-5.41h3v4.16H8.476c-1.387,0-1.479.4-1.479,1.48L7,1342h4l-1,4.03H6.992Z" fill="#787c82" fill-rule="evenodd"/>
    <circle id="Ellipse_1_copy_4" data-name="Ellipse 1 copy 4" cx="10.5" cy="10.5" r="10.5" transform="translate(2 898)" fill="#dd5044"/>
    <path id="路径_2" data-name="路径 2" d="M9.5,913a4.5,4.5,0,1,1,3.035-7.819l-1.326,1.3a2.647,2.647,0,1,0,.767,2.961H9.439v-1.879H13.9A4.5,4.5,0,0,1,9.5,913Zm10.494-3.822H18.161v1.843h-1.33v-1.843H15v-1.34h1.829v-1.843h1.33v1.843H19.99v1.34Z" fill="#fff" fill-rule="evenodd"/>
    <path id="Ellipse_1_copy" data-name="Ellipse 1 copy" d="M12.5,950A10.5,10.5,0,1,1,23,939.5,10.5,10.5,0,0,1,12.5,950Zm1.4-11.442H9.439v1.879h2.533a2.65,2.65,0,1,1-.767-2.961l1.326-1.3a4.489,4.489,0,1,0,1.369,2.382Zm4.265.276v-1.843h-1.33v1.843H15v1.34h1.829v1.843h1.33v-1.843H19.99v-1.34H18.161Z" fill="#787c82" fill-rule="evenodd"/>
    <path id="Ellipse_1_copy_2" data-name="Ellipse 1 copy 2" d="M12.5,983A10.5,10.5,0,1,1,23,972.5,10.5,10.5,0,0,1,12.5,983Zm1.4-11.442H9.439v1.879h2.533a2.65,2.65,0,1,1-.767-2.961l1.326-1.3a4.489,4.489,0,1,0,1.369,2.382Zm4.265.276v-1.843h-1.33v1.843H15v1.34h1.829v1.843h1.33v-1.843H19.99v-1.34H18.161Z" fill="#787c82" fill-rule="evenodd"/>
    <circle id="Ellipse_1_copy_6" data-name="Ellipse 1 copy 6" cx="10.5" cy="10.5" r="10.5" transform="translate(2 997)" fill="#dd5044"/>
    <path id="Ellipse_1_copy_5" data-name="Ellipse 1 copy 5" d="M9.5,1012a4.5,4.5,0,1,1,3.035-7.82l-1.326,1.3a2.648,2.648,0,1,0,.767,2.96H9.439v-1.88H13.9a4.444,4.444,0,0,1,.1.94,4.5,4.5,0,0,1-4.5,4.5Zm10.494-3.83H18.161v1.85h-1.33v-1.85H15v-1.34h1.829v-1.84h1.33v1.84H19.99v1.34Z" fill="#fff" fill-rule="evenodd"/>
    <path id="路径_3" data-name="路径 3" d="M13.289,1039.54a4.505,4.505,0,0,1,2.7-5.32,4.484,4.484,0,0,1,4.671,1.21,11.99,11.99,0,0,0,2.775-1.1,4.791,4.791,0,0,1-1.967,2.46,7.36,7.36,0,0,0,2.529-.7,10.8,10.8,0,0,1-2.213,2.39c0,11.86-11.379,16.64-18.79,11.42a8.856,8.856,0,0,0,6.322-1.87,4.4,4.4,0,0,1-4.074-3.12,4.335,4.335,0,0,0,2-.11,4.71,4.71,0,0,1-3.477-4.49,2.43,2.43,0,0,0,2,.59s-3.161-2.02-1.37-6.13C4.4,1034.77,7.865,1039.86,13.289,1039.54Z" fill="#787c82" fill-rule="evenodd"/>
    <path id="Shape_1_copy_7" data-name="Shape 1 copy 7" d="M10.289,1170.23a4.232,4.232,0,0,1,2.7-5.03,4.685,4.685,0,0,1,4.671,1.15,12.645,12.645,0,0,0,2.775-1.04,4.55,4.55,0,0,1-1.967,2.32,7.485,7.485,0,0,0,2.529-.66,10.376,10.376,0,0,1-2.213,2.26c0,11.2-11.379,15.72-18.79,10.79a9.267,9.267,0,0,0,6.322-1.77,4.407,4.407,0,0,1-4.074-2.95,4.586,4.586,0,0,0,2-.1,4.553,4.553,0,0,1-3.477-4.24,2.531,2.531,0,0,0,2,.56,4.362,4.362,0,0,1-1.37-5.8S4.865,1170.53,10.289,1170.23Z" fill="#787c82" fill-rule="evenodd"/>
    <path id="Shape_1_copy" data-name="Shape 1 copy" d="M13.289,1074.54a4.505,4.505,0,0,1,2.7-5.32,4.484,4.484,0,0,1,4.671,1.21,12,12,0,0,0,2.775-1.1,4.791,4.791,0,0,1-1.967,2.46,7.36,7.36,0,0,0,2.529-.7,10.8,10.8,0,0,1-2.213,2.39c0,11.86-11.379,16.64-18.79,11.42a8.856,8.856,0,0,0,6.322-1.87,4.4,4.4,0,0,1-4.074-3.12,4.335,4.335,0,0,0,2-.11,4.71,4.71,0,0,1-3.477-4.49,2.43,2.43,0,0,0,2,.59s-3.161-2.02-1.37-6.13C4.4,1069.77,7.865,1074.86,13.289,1074.54Z" fill="#00aced" fill-rule="evenodd"/>
    <path id="Shape_1_copy_2" data-name="Shape 1 copy 2" d="M10.289,1105.23a4.232,4.232,0,0,1,2.7-5.03,4.685,4.685,0,0,1,4.671,1.15,12.652,12.652,0,0,0,2.775-1.04,4.55,4.55,0,0,1-1.967,2.32,7.485,7.485,0,0,0,2.529-.66,10.376,10.376,0,0,1-2.213,2.26c0,11.2-11.379,15.72-18.79,10.79a9.267,9.267,0,0,0,6.322-1.77,4.407,4.407,0,0,1-4.074-2.95,4.586,4.586,0,0,0,2-.1,4.553,4.553,0,0,1-3.477-4.24,2.531,2.531,0,0,0,2,.56,4.362,4.362,0,0,1-1.37-5.8S4.865,1105.53,10.289,1105.23Z" fill="#00aced" fill-rule="evenodd"/>
    <path id="路径_4" data-name="路径 4" d="M0,392H7v7Z" fill="#64ffa9" fill-rule="evenodd"/>
    <rect id="矩形_1" data-name="矩形 1" width="14" height="14" transform="translate(0 457)" fill="#787c82" opacity="0.3"/>
    <rect id="Rectangle_2_copy" data-name="Rectangle 2 copy" width="14" height="14" transform="translate(0 433)" fill="#787c82" opacity="0.3"/>
    <rect id="矩形_2" data-name="矩形 2" width="6" height="6" transform="translate(4 437)" fill="#64ffa9"/>
    <rect id="Rectangle_2_copy_2" data-name="Rectangle 2 copy 2" width="14" height="14" transform="translate(0 409)" fill="#787c82" opacity="0.3"/>
    <path id="路径_5" data-name="路径 5" d="M4.136,418.559l-2.148-2.181,1.432-1.454L5.568,417.1l5.012-5.089,1.432,1.454L7,418.559l-1.432,1.454Z" fill="#64ffa9" fill-rule="evenodd"/>
    <path id="路径_6" data-name="路径 6" d="M27.814,1154.11l-.707.7L14.5,1142.21l-12.607,12.6-.707-.7,12.607-12.61L1.186,1128.89l.707-.7,12.607,12.6,12.607-12.6.707.7L15.207,1141.5Z" fill="#787c82" fill-rule="evenodd"/>
    <path id="Rectangle_6_copy" data-name="Rectangle 6 copy" d="M27.814,1219.11l-.707.7L14.5,1207.21l-12.607,12.6-.707-.7,12.607-12.61L1.186,1193.89l.707-.7,12.607,12.6,12.607-12.6.707.7L15.207,1206.5Z" fill="#fff" fill-rule="evenodd"/>
    <path id="Rectangle_6_copy_2" data-name="Rectangle 6 copy 2" d="M12.814,1286.11l-.707.7-10.92-10.92.393-.39-.393-.39,10.92-10.92.707.7L2.207,1275.5Z" fill="#787c82" fill-rule="evenodd"/>
    <path id="Rectangle_6_copy_3" data-name="Rectangle 6 copy 3" d="M12.814,1390.11l-.707.7-10.92-10.92.393-.39-.393-.39,10.92-10.92.707.7L2.207,1379.5Z" fill="#fff" fill-rule="evenodd"/>
    <path id="Rectangle_6_copy_2-2" data-name="Rectangle 6 copy 2" d="M13.814,1437.89l-10.92,10.92-.707-.7,10.607-10.61L2.186,1426.89l.707-.7,10.92,10.92-.393.39Z" fill="#787c82" fill-rule="evenodd"/>
    <path id="Rectangle_6_copy_3-2" data-name="Rectangle 6 copy 3" d="M13.814,1499.89l-10.92,10.92-.707-.7,10.607-10.61L2.186,1488.89l.707-.7,10.92,10.92-.393.39Z" fill="#fff" fill-rule="evenodd"/>
    <path id="路径_7" data-name="路径 7" d="M18.485,1404l-7.778,7.78h0l-.707.71-.707-.71h0L1.515,1404l.707-.71L10,1411.07l7.778-7.78Z" fill="#fff" fill-rule="evenodd"/>
    <path id="路径_8" data-name="路径 8" d="M6.782-9.027V0H3.015V-9.027H.13v-3.637H9.658v3.637Zm9.083.891V-4.8H14.816V0H11.049V-12.664h3.767v4.527Zm4.407-4.527V0H16.5V-12.664ZM33.5-12.719V-9.11a2.13,2.13,0,0,0-.631-.139.986.986,0,0,0-.733.315,1.053,1.053,0,0,0-.306.761,2.081,2.081,0,0,0,.334.965l.288.5a5.246,5.246,0,0,1,.779,2.616A4.2,4.2,0,0,1,31.919-.965,4.418,4.418,0,0,1,28.713.315a4.2,4.2,0,0,1-1.8-.417V-3.767a1.839,1.839,0,0,0,.956.343,1.216,1.216,0,0,0,.821-.283.9.9,0,0,0,.329-.71,3.615,3.615,0,0,0-.529-1.215A5.959,5.959,0,0,1,27.646-8.6a4.242,4.242,0,0,1,1.276-3.085,4.13,4.13,0,0,1,3.048-1.294A4.655,4.655,0,0,1,33.5-12.719Zm4.741.056V-9.12H39.8v3.665H38.241a2.452,2.452,0,0,0,.348,1.521,1.6,1.6,0,0,0,1.276.417V.13q-.269.009-.4.009a4.716,4.716,0,0,1-2.222-.547,4.5,4.5,0,0,1-1.675-1.484,5.634,5.634,0,0,1-.8-3.173v-7.6ZM41.507-9.12h3.47V-3.9q0,.789.659.789t.649-.789V-9.12h3.47v5.158a4.206,4.206,0,0,1-1.2,3.038A3.919,3.919,0,0,1,45.626.315a3.949,3.949,0,0,1-3.182-1.438,4.724,4.724,0,0,1-.937-3.117Zm15.966-3.544h3.47v7.709a5.225,5.225,0,0,1-1.113,3.46A4.555,4.555,0,0,1,58.2-.269a4.8,4.8,0,0,1-2.027.455,4.791,4.791,0,0,1-3.488-1.392A4.6,4.6,0,0,1,51.267-4.62a4.658,4.658,0,0,1,1.41-3.386,4.536,4.536,0,0,1,3.34-1.429q.306,0,.928.056v3.822a1.384,1.384,0,0,0-.854-.334,1.245,1.245,0,0,0-.923.394,1.312,1.312,0,0,0-.385.951,1.238,1.238,0,0,0,.4.923,1.327,1.327,0,0,0,.956.385q1.336,0,1.336-1.846ZM66.24-9.25V0h-3.47V-9.25Zm-1.726-4.128a1.7,1.7,0,0,1,1.22.5,1.577,1.577,0,0,1,.515,1.174,1.568,1.568,0,0,1-.487,1.188,1.736,1.736,0,0,1-1.248.464,1.736,1.736,0,0,1-1.248-.464,1.568,1.568,0,0,1-.487-1.187,1.577,1.577,0,0,1,.515-1.174A1.7,1.7,0,0,1,64.515-13.378Zm8.155,3.934A4.584,4.584,0,0,1,76.042-8.03a4.641,4.641,0,0,1,1.406,3.391,4.627,4.627,0,0,1-1.424,3.414A4.707,4.707,0,0,1,72.586.186a4.715,4.715,0,0,1-3.442-1.415,4.624,4.624,0,0,1-1.429-3.409,4.577,4.577,0,0,1,1.429-3.419A4.865,4.865,0,0,1,72.669-9.444Zm-.093,3.423a1.266,1.266,0,0,0-.946.4,1.369,1.369,0,0,0-.39.988,1.365,1.365,0,0,0,.394.983,1.264,1.264,0,0,0,.942.408,1.274,1.274,0,0,0,.951-.408,1.365,1.365,0,0,0,.394-.983,1.369,1.369,0,0,0-.39-.988A1.277,1.277,0,0,0,72.577-6.021Z" transform="translate(66.994 357)" fill="#1a1d24"/>
  </g>
</svg>
